<svg width="14" height="14" viewBox="0 0 14 14" fill="none" xmlns="http://www.w3.org/2000/svg">
<g id="37">
<g id="Group">
<path id="Vector" d="M7.11403 4.66637L7.43802 5.42419C7.45999 5.49009 7.5204 5.52853 7.5808 5.53402L8.40452 5.6109C8.58025 5.62737 8.64614 5.84154 8.51984 5.95686L7.89931 6.50052C7.84988 6.54445 7.82792 6.61035 7.84439 6.67075L8.02561 7.478C8.06405 7.64823 7.88283 7.78003 7.72907 7.69216L7.02067 7.26932C6.96576 7.23637 6.89437 7.23637 6.83945 7.26932L6.13105 7.69216C5.98279 7.78003 5.79608 7.64823 5.83452 7.478L6.01573 6.67075C6.03221 6.61035 6.01024 6.54445 5.96082 6.50052L5.34028 5.95686C5.20849 5.84154 5.27988 5.62737 5.4556 5.6109L6.27932 5.53402C6.34522 5.52853 6.40014 5.49009 6.42759 5.42968L6.75159 4.67186C6.81749 4.50712 7.04264 4.50712 7.11403 4.66637Z" stroke="#F0C932" stroke-width="0.549146" stroke-miterlimit="10" stroke-linecap="round" stroke-linejoin="round"/>
<path id="Vector_2" d="M10.6655 6.2724C10.6797 4.21006 9.01937 2.5267 6.95703 2.51251C4.89469 2.49831 3.21133 4.15866 3.19713 6.221C3.18294 8.28334 4.84329 9.96671 6.90563 9.9809C8.96797 9.99509 10.6513 8.33474 10.6655 6.2724Z" stroke="#F0C932" stroke-width="0.549146" stroke-miterlimit="10" stroke-linecap="round" stroke-linejoin="round"/>
<g id="Group_2">
<path id="Vector_3" d="M6.42207 9.94366L5.49402 12.2775L4.31884 10.9321L2.5451 11.0969L3.72027 8.15344" stroke="#F0C932" stroke-width="0.549146" stroke-miterlimit="10" stroke-linecap="round" stroke-linejoin="round"/>
<path id="Vector_4" d="M7.43254 9.94366L8.36608 12.2775L9.53577 10.9321L11.315 11.0969L10.1343 8.15344" stroke="#F0C932" stroke-width="0.549146" stroke-miterlimit="10" stroke-linecap="round" stroke-linejoin="round"/>
</g>
</g>
</g>
</svg>
