<svg width="77" height="11" viewBox="0 0 77 11" fill="none" xmlns="http://www.w3.org/2000/svg">
<g id="Group 65">
<g id="Group 64">
<path id="Star 2" d="M4.9583 0.930344C5.01922 0.73911 5.28981 0.739111 5.35073 0.930344L6.1967 3.58602C6.22391 3.67144 6.30326 3.72944 6.39291 3.72944H9.13906C9.33756 3.72944 9.42115 3.98263 9.26167 4.10082L7.03302 5.7524C6.96227 5.80483 6.93269 5.89645 6.95942 5.98035L7.80902 8.64744C7.86969 8.83788 7.65078 8.9944 7.4902 8.87539L5.27712 7.23536C5.20429 7.18139 5.10474 7.18139 5.0319 7.23536L2.81883 8.87539C2.65825 8.9944 2.43934 8.83788 2.50001 8.64744L3.34961 5.98035C3.37634 5.89645 3.34676 5.80483 3.27601 5.7524L1.04736 4.10082C0.887881 3.98263 0.971472 3.72944 1.16997 3.72944H3.91612C4.00577 3.72944 4.08512 3.67144 4.11233 3.58602L4.9583 0.930344Z" fill="#F1CC4A"/>
<path id="Star 4" d="M38.6439 0.930435C38.7048 0.739202 38.9754 0.739202 39.0364 0.930436L39.8823 3.58611C39.9095 3.67153 39.9889 3.72953 40.0785 3.72953H42.8247C43.0232 3.72953 43.1068 3.98273 42.9473 4.10091L40.7186 5.75249C40.6479 5.80492 40.6183 5.89654 40.645 5.98044L41.4946 8.64753C41.5553 8.83798 41.3364 8.99449 41.1758 8.87549L38.9627 7.23545C38.8899 7.18148 38.7904 7.18148 38.7175 7.23545L36.5045 8.87549C36.3439 8.99449 36.125 8.83798 36.1856 8.64753L37.0352 5.98044C37.062 5.89654 37.0324 5.80492 36.9616 5.75249L34.733 4.10091C34.5735 3.98273 34.6571 3.72953 34.8556 3.72953H37.6017C37.6914 3.72953 37.7707 3.67153 37.798 3.58611L38.6439 0.930435Z" fill="black"/>
<path id="Star 3" d="M17.8795 0.930435C17.9404 0.739202 18.211 0.739202 18.2719 0.930436L19.1179 3.58611C19.1451 3.67153 19.2244 3.72953 19.3141 3.72953H22.0602C22.2587 3.72953 22.3423 3.98273 22.1829 4.10091L19.9542 5.75249C19.8835 5.80492 19.8539 5.89654 19.8806 5.98044L20.7302 8.64753C20.7909 8.83798 20.572 8.99449 20.4114 8.87549L18.1983 7.23545C18.1255 7.18148 18.0259 7.18148 17.9531 7.23545L15.74 8.87549C15.5794 8.99449 15.3605 8.83798 15.4212 8.64753L16.2708 5.98044C16.2975 5.89654 16.2679 5.80492 16.1972 5.75249L13.9686 4.10091C13.8091 3.98273 13.8927 3.72953 14.0912 3.72953H16.8373C16.927 3.72953 17.0063 3.67153 17.0335 3.58611L17.8795 0.930435Z" fill="black"/>
<path id="Star 5" d="M51.5651 0.930435C51.626 0.739202 51.8966 0.739202 51.9575 0.930436L52.8035 3.58611C52.8307 3.67153 52.9101 3.72953 52.9997 3.72953H55.7459C55.9444 3.72953 56.0279 3.98273 55.8685 4.10091L53.6398 5.75249C53.5691 5.80492 53.5395 5.89654 53.5662 5.98044L54.4158 8.64753C54.4765 8.83798 54.2576 8.99449 54.097 8.87549L51.8839 7.23545C51.8111 7.18148 51.7115 7.18148 51.6387 7.23545L49.4256 8.87549C49.265 8.99449 49.0461 8.83798 49.1068 8.64753L49.9564 5.98044C49.9831 5.89654 49.9536 5.80492 49.8828 5.75249L47.6542 4.10091C47.4947 3.98273 47.5783 3.72953 47.7768 3.72953H50.5229C50.6126 3.72953 50.6919 3.67153 50.7191 3.58611L51.5651 0.930435Z" fill="black"/>
<path id="Star 6" d="M71.3491 0.930435C71.41 0.739202 71.6806 0.739202 71.7415 0.930436L72.5875 3.58611C72.6147 3.67153 72.694 3.72953 72.7837 3.72953H75.5298C75.7283 3.72953 75.8119 3.98273 75.6524 4.10091L73.4238 5.75249C73.353 5.80492 73.3235 5.89654 73.3502 5.98044L74.1998 8.64753C74.2604 8.83798 74.0415 8.99449 73.881 8.87549L71.6679 7.23545C71.5951 7.18148 71.4955 7.18148 71.4227 7.23545L69.2096 8.87549C69.049 8.99449 68.8301 8.83798 68.8908 8.64753L69.7404 5.98044C69.7671 5.89654 69.7375 5.80492 69.6668 5.75249L67.4381 4.10091C67.2786 3.98273 67.3622 3.72953 67.5607 3.72953H70.3069C70.3965 3.72953 70.4759 3.67153 70.5031 3.58611L71.3491 0.930435Z" fill="black"/>
</g>
</g>
</svg>
